
        <svg xmlns="http://www.w3.org/2000/svg" xmlns:xlink="http://www.w3.org/1999/xlink" version="1.1" width="3215.655194732259" height="1028.3021384580725" viewBox="0 0 3215.655194732259 1028.3021384580725">
			
			<g transform="scale(10.782759736612963) translate(10, 10)">
				<defs id="SvgjsDefs5974"><linearGradient id="SvgjsLinearGradient5981"><stop id="SvgjsStop5982" stop-color="#ee2a7b" offset="0"/><stop id="SvgjsStop5983" stop-color="#ff7db8" offset="1"/></linearGradient></defs><g id="SvgjsG5975" featureKey="ggLddZ-0" transform="matrix(0.3450796799091848,0,0,0.3450796799091848,166.0710158283814,-31.33323598885359)" fill="#fff"><g xmlns="http://www.w3.org/2000/svg"><path d="M226,141.3c2,2.5,4,5,6.1,7.5c14.7-11.3,30.2-21.6,46.3-30.7l-2.1-3.6c-3.6-6.2-7.2-12.3-10.8-18.5l-0.9-1.5l-0.1-0.3   c-0.3-0.6-0.7-1.2-1.2-1.7c-1-1-2.4-1.6-3.8-1.6c-0.6,0-1.2,0-1.7,0c-2.7,0-5.4-0.1-8.2-0.1c-2.4,0-4.9,0-7.3,0c-1.6,0-3.3,0-4.9,0   h-0.4c-1.2,8-3.1,15.8-6,23.3c-2.7,7-6,13.8-10.1,20.1C222.5,136.6,224.2,139,226,141.3z"/><path d="M238,155.5c4.4,4.9,9,9.6,13.6,14.2c5,5,10.2,10,15.5,14.7c2.6,2.4,5.3,4.7,8,7c5.3-5.4,10.8-10.6,16.6-15.6   c4.5-3.9,9-7.7,13.7-11.3c-7.5-13-15.1-26-22.5-38.7c-1.8,1-3.5,2-5.2,3C264,136.9,250.7,145.8,238,155.5z"/><path d="M323.9,196.7c-0.3-0.6-0.6-1.2-1-1.8l-0.4-0.7l-0.9-1.7c-0.8-1.4-1.6-2.9-2.4-4.3c-2-3.5-4.1-7.2-6.8-12   c-0.8-1.3-1.5-2.7-2.3-4c-0.1,0-0.1,0.1-0.2,0.1c-9.7,7.6-18.9,15.9-27.6,24.6c0.7,0.5,1.3,1,2,1.6c8.9,6.8,18.1,13.2,27.8,19   c0.8,0.5,1.7,1,2.5,1.5c3.1-5.3,6.2-10.6,9.3-15.9c0.6-1,1.1-2,1.1-3.3C324.8,198.7,324.4,197.8,323.9,196.7z"/><path d="M209.9,147.7c-7.6,7.5-16.6,13.3-26.6,17c-10.6,3.9-21.9,5.4-33.1,4.4c-1.6,2.8-3.3,5.5-5,8.3c-2.4,3.8-4.8,7.5-7.3,11.1   c7,3.1,13.8,6.5,20.4,10.4c4.2,2.5,8.2,5.1,12.2,7.9c13.3-15.4,27.8-29.9,43.3-43.2c3.7-3.2,7.4-6.3,11.2-9.3   c-3.4-4-6.7-8.2-9.8-12.4C213.6,143.9,211.8,145.9,209.9,147.7z"/><path d="M240.1,232.7c7.9-10.9,16.3-21.4,25.4-31.3c1.1-1.2,2.3-2.4,3.4-3.6c-4.8-4.1-9.5-8.2-14.1-12.6   c-8.2-7.8-16.3-15.8-23.8-24.2c0,0,0,0,0,0c-19.2,15.4-37,32.6-53.2,51.2c3.9,3.1,7.7,6.4,11.3,9.8c4.7,4.5,9.1,9.4,13.3,14.4   c10.6,1,21.2,2.7,31.5,5.4C235.8,238.8,237.9,235.7,240.1,232.7z"/><path d="M144.2,240.5c4.9-7,10-13.8,15.4-20.5c1.7-2.1,3.4-4.2,5.1-6.3c-10-7-20.8-12.9-32-17.7c-3.4,4.7-7,9.2-10.7,13.7   c-7.9,9.5-16.6,18.4-26,26.5c3.6,6.2,7.1,12.5,10.5,18.6l0.4,0.7c3.2-1.9,6.5-3.6,9.8-5.2C125.5,246.1,134.8,242.8,144.2,240.5z"/><path d="M157.1,237.9c9.3-1.5,18.8-2.2,28.3-2.2c1.5,0,2.9,0,4.4,0.1c-1.3-1.4-2.6-2.8-3.9-4.1c-4.4-4.5-9-8.6-13.9-12.5   c-3.2,3.8-6.3,7.7-9.4,11.6C160.7,233.1,158.9,235.5,157.1,237.9z"/><path d="M215.7,272c-0.8-1.3-1.5-2.7-2.3-4c-4.4-7.3-9.1-14.3-14.3-21.1c-0.5-0.6-0.9-1.2-1.4-1.8c-4.1-0.3-8.2-0.4-12.3-0.4   c-7.8,0-15.6,0.5-23.3,1.5c-4.2,0.6-8.4,1.4-12.6,2.3c-5.2,7.6-10.1,15.3-14.8,23.2c-3.2,5.4-6.3,11-9.3,16.5c2,3.5,3.9,7,5.9,10.5   c0,0.1,0.1,0.1,0.1,0.2l0.7,1.2c0.3,0.6,0.7,1.2,1,1.8l0.5,0.9c0.4,0.8,0.9,1.6,1.4,2.4l0.4,0.7c0.6,1.1,1.7,2,3,2.3   c0.6,0.2,1.3,0.2,1.9,0.2l0.6,0h0.3l0.3,0c3.3,0,6.7,0.1,10,0.1l4.7,0.1c9.9,0.1,19.9,0.2,29.6,0.2l1.6,0c3.7,0,7.4,0,11.2,0.1   c0.7-2,1.4-4,2.2-6c3.1-7.8,6.9-15.2,10.6-22.7C212.9,277.5,214.3,274.7,215.7,272z"/><path d="M125.8,256c-5,2.1-9.8,4.6-14.4,7.3l4.7,8.3c1.4,2.5,2.8,4.9,4.2,7.4c5-9.2,10.4-18.2,16.1-26.9   C132.8,253.2,129.3,254.5,125.8,256z"/><path d="M213.4,251.3c2.6,3.8,5,7.6,7.4,11.5c2.5-4.4,5.1-8.7,7.7-12.9c-6.1-1.5-12.3-2.7-18.5-3.5c0,0-0.1,0-0.1,0   C211.1,248,212.3,249.6,213.4,251.3z"/><path d="M275.9,203.6c-7.6,8-14.8,16.4-21.6,25.2c-3.9,5.1-7.7,10.4-11.4,15.7c10.2,3.1,20.3,7,30,11.5c5.3,2.5,10.6,5.1,15.7,8   c0.9-1.5,1.8-3.1,2.6-4.6l1-1.8c5.3-9.2,10.5-18.4,15.6-27.1c0.7-1.2,1.3-2.3,2-3.5c-1.1-0.6-2.2-1.3-3.3-1.9   C296,218.5,285.7,211.3,275.9,203.6z"/><path d="M261.8,260.8c-7.9-3.3-16-6.2-24.2-8.6c-3,4.7-5.9,9.4-8.6,14.2c-1,1.8-2,3.6-3,5.4c0.7,1.4,1.5,2.7,2.2,4.1   c1.4,2.6,2.8,5.3,4.1,8c2.6,5.8,4.7,11.9,6.6,17.9c0.8,2.4,1.5,4.9,2.3,7.3c3.1,0,6.1,0,9.2,0c3,0,6.1,0,9.1,0c2,0,4-1.1,5-2.9   c2.4-4.1,4.7-8.2,7.1-12.2l1.1-2c1.2-2.1,2.5-4.2,3.7-6.4l0.4-0.7c0.3-0.6,0.7-1.2,1-1.8c0.2-0.3,0.3-0.6,0.4-0.9   c1.6-3,3.3-6,4.9-8.9l1-1.7c-0.1-0.1-0.3-0.1-0.4-0.2C276.7,267.6,269.3,264,261.8,260.8z"/><path d="M221,281.5c-0.8,1.5-1.5,3-2.3,4.5c-2.8,5.7-5.7,11.4-8.3,17.3c-0.8,1.9-1.5,3.8-2.2,5.8c5.2,0,10.5,0,15.7,0.1   c2.6,0,5.2,0,7.8,0c-2-6.4-3.9-12.8-6.4-18.9C224,287.2,222.5,284.3,221,281.5z"/><path d="M215.4,125.9c2.1-3.5,3.9-7.1,5.5-10.8c3.2-7.8,5.5-16,6.9-24.3l-8.2,0c-5.8,0-11.7,0-17.5,0c1,7,3.1,13.9,5.8,20.4   C210.1,116.3,212.6,121.2,215.4,125.9z"/><path d="M155.2,160.3c0,0,0,0.1-0.1,0.1c3.6,0.1,7.2-0.1,10.8-0.5c5.9-0.9,11.7-2.4,17.2-4.7c5-2.2,9.7-5,14.1-8.2   c4.7-3.7,8.9-8,12.7-12.8c-0.2-0.3-0.4-0.7-0.7-1c-3.1-4.9-5.9-9.9-8.3-15.1c-2.4-5.3-4.5-10.7-5.9-16.3c-0.9-3.5-1.6-7.2-2.1-10.8   c-6.1,0-12.2,0-18.3,0c-0.2,2-0.5,4-0.7,6c-0.3,3.2-0.7,6.4-1.2,9.7c-1.8,12.1-4.9,24.1-9.4,35.5   C161,148.2,158.3,154.3,155.2,160.3z"/><path d="M129.4,154.8c5.2,2.1,10.5,3.7,16,4.6c0.4-0.8,0.9-1.6,1.3-2.3c2.4-4.5,4.6-9.1,6.7-13.8c5.4-13,9.1-26.5,11.1-40.4   c0.5-3.6,0.9-7.3,1.3-10.9c0-0.4,0.1-0.7,0.1-1.1c-9.3,0-17.8,0-25.9-0.1c-1,0-1.9,0.3-2.8,0.7c-0.8,0.5-1.5,1.1-2,2   c-0.3,0.7-0.7,1.4-1.1,2.1c-0.1,0.2-0.3,0.5-0.4,0.7c-0.5,0.9-1,1.7-1.4,2.6l-0.3,0.6c-1.1,1.9-2.1,3.8-3.2,5.7   c-1.8,3.1-3.5,6.1-5.3,9.2l-2,3.6l-5.9,10.3c-2.7,4.7-5.3,9.3-8,14c0.1,0.1,0.2,0.1,0.3,0.2C114.3,147.4,121.7,151.5,129.4,154.8z"/><path d="M129.4,185c3.2-4.7,6.3-9.4,9.3-14.2c0.6-1,1.3-2.1,1.9-3.1c-10.6-2.3-20.6-6.7-29.8-12.3c-2.7-1.6-5.4-3.4-7.9-5.3   c-4.1,7.1-8.1,14.2-12.2,21.3c-0.4,0.7-0.8,1.4-1.2,2.1c1.8,0.4,3.6,0.8,5.4,1.2C106.6,177.3,118.2,180.7,129.4,185z"/><path d="M120.9,196.7c1.1-1.4,2.1-2.7,3.1-4.1c-12.8-4.7-25.9-8.2-39.2-11c-3,5.2-6.1,10.6-9,15.9c-1.1,1.9-0.8,4.3,0.7,5.8   l0.3,0.3l0.1,0.1c0.4,0.6,0.7,1.1,1.1,1.6c0.3,0.4,0.6,0.9,1,1.4c1.5,2.5,2.9,5.1,4.4,7.6l3.1,5.4c1.6,2.8,3.3,5.7,4.9,8.6   c0.6-0.5,1.2-1.1,1.8-1.6c3.3-3,6.6-6.1,9.7-9.3C109.3,210.8,115.3,203.9,120.9,196.7z"/></g></g><g id="SvgjsG5976" featureKey="nN0dxP-0" transform="matrix(3.1399089607788713,0,0,3.1399089607788713,-2.5119272060537288,-9.873623445297786)" fill="#fff"><path d="M0.8 20 l0 -15.6 l3.98 0 l0 11.74 l7.48 0 l0 3.86 l-11.46 0 z M13.860000000000001 14.18 c0 -3.08 2.62 -5.76 5.98 -5.76 c3.34 0 5.96 2.68 5.96 5.76 c0 0.42 -0.04 0.82 -0.12 1.2 l-8.34 0.02 c0.44 0.9 1.36 1.54 2.5 1.54 c0.78 0 1.48 -0.32 1.96 -0.8 l3.64 0 c-0.82 2.18 -3 3.82 -5.6 3.82 c-3.36 0 -5.98 -2.6 -5.98 -5.7 l0 -0.08 z M17.44 12.8 l-0.1 0.28 l5.06 0 l-0.16 -0.28 c-0.48 -0.8 -1.34 -1.36 -2.4 -1.36 s-1.94 0.56 -2.4 1.36 z M29.300000000000004 14.219999999999999 l-3.98 5.76 l3.98 0 l1.94 -2.86 l1.96 2.86 l3.98 0 l-3.98 -5.76 l3.9 -5.8 l-3.88 0 l-1.98 2.98 l-1.96 -2.98 l-3.88 0 z M52.900000000000006 21 l-1.74 -1.74 c-1.22 0.7 -2.6 1.04 -4.1 1.04 c-2.26 0 -4.2 -0.8 -5.82 -2.38 c-1.64 -1.58 -2.46 -3.5 -2.46 -5.72 s0.82 -4.14 2.46 -5.72 c1.62 -1.58 3.56 -2.38 5.82 -2.38 c2.28 0 4.24 0.8 5.86 2.38 s2.42 3.5 2.42 5.72 c0 1.6 -0.42 3.06 -1.26 4.32 l1.64 1.66 z M47.06 16.44 c1.2 0 2.2 -0.42 3.02 -1.24 s1.22 -1.82 1.22 -3 s-0.4 -2.2 -1.22 -3.02 s-1.82 -1.22 -3.02 -1.22 c-1.18 0 -2.18 0.42 -3 1.24 s-1.24 1.82 -1.24 3 s0.42 2.18 1.24 3 s1.82 1.24 3 1.24 z"/></g><g id="SvgjsG5977" featureKey="IfqRl1-0" transform="matrix(0.42274028458380725,0,0,0.42274028458380725,13.661807767293498,64.26676709088308)" fill="#fff"><path d="M0.8 20 l0 -15.6 l11.98 0 l0 3.88 l-7.98 0 l0 2.24 l5.62 0 l0 3.62 l-5.62 0 l0 2 l7.98 0 l0 3.86 l-11.98 0 z M29.116000000000003 20 l0 -15.6 l3.4 0 l6.96 8.72 l0 -8.72 l3.98 0 l0 15.6 l-3.38 0 l-6.96 -8.7 l0 8.7 l-4 0 z M64.652 20 l0 -11.72 l-4.86 0 l0 -3.88 l13.72 0 l0 3.88 l-4.86 0 l0 11.72 l-4 0 z M89.848 20 l0 -15.6 l11.98 0 l0 3.88 l-7.98 0 l0 2.24 l5.62 0 l0 3.62 l-5.62 0 l0 2 l7.98 0 l0 3.86 l-11.98 0 z M118.164 20 l0 -15.6 l6.88 0 c1.96 0 3.48 0.5 4.54 1.5 c1.06 1.02 1.58 2.28 1.58 3.74 c0 1.54 -0.52 2.82 -1.58 3.82 c-0.34 0.32 -0.72 0.58 -1.14 0.8 l3.12 5.74 l-3.78 0 l-2.74 -5.02 l-2.88 0 l0 5.02 l-4 0 z M122.164 11.78 l2.66 0 c1.54 0 2.3 -0.7 2.3 -2.12 c0 -0.6 -0.18 -1.08 -0.56 -1.48 s-0.96 -0.58 -1.74 -0.58 l-2.66 0 l0 4.18 z M147.90000000000003 20 l0 -15.6 l6.88 0 c1.96 0 3.48 0.5 4.54 1.5 c1.06 1.02 1.58 2.28 1.58 3.74 c0 1.54 -0.52 2.82 -1.58 3.82 s-2.56 1.52 -4.54 1.52 l-2.88 0 l0 5.02 l-4 0 z M151.90000000000003 11.78 l2.66 0 c1.54 0 2.3 -0.7 2.3 -2.12 c0 -0.6 -0.18 -1.08 -0.56 -1.48 s-0.96 -0.58 -1.74 -0.58 l-2.66 0 l0 4.18 z M177.23600000000005 20 l0 -15.6 l6.88 0 c1.96 0 3.48 0.5 4.54 1.5 c1.06 1.02 1.58 2.28 1.58 3.74 c0 1.54 -0.52 2.82 -1.58 3.82 c-0.34 0.32 -0.72 0.58 -1.14 0.8 l3.12 5.74 l-3.78 0 l-2.74 -5.02 l-2.88 0 l0 5.02 l-4 0 z M181.23600000000005 11.78 l2.66 0 c1.54 0 2.3 -0.7 2.3 -2.12 c0 -0.6 -0.18 -1.08 -0.56 -1.48 s-0.96 -0.58 -1.74 -0.58 l-2.66 0 l0 4.18 z M206.97200000000004 20 l0 -15.6 l4 0 l0 15.6 l-4 0 z M233.94800000000004 20.3 c-1.94 0 -3.52 -0.42 -4.76 -1.28 s-1.86 -2.02 -1.86 -3.52 l0 -0.18 l-0.02 -0.8 l3.92 0 l0 0.9 c0 0.34 0.24 0.66 0.7 0.96 s1.1 0.46 1.94 0.46 c0.7 0 1.2 -0.1 1.52 -0.28 c0.3 -0.18 0.46 -0.42 0.46 -0.68 c0 -0.32 -0.2 -0.6 -0.58 -0.84 c-0.4 -0.24 -1.1 -0.52 -2.08 -0.86 c-0.62 -0.22 -1.14 -0.4 -1.56 -0.56 s-0.92 -0.4 -1.5 -0.72 c-0.58 -0.3 -1.06 -0.64 -1.4 -0.98 s-0.64 -0.76 -0.9 -1.28 s-0.38 -1.08 -0.38 -1.7 c0 -1.46 0.56 -2.64 1.7 -3.52 s2.6 -1.32 4.4 -1.32 c1.86 0 3.38 0.46 4.58 1.38 s1.8 2.14 1.8 3.66 l0 0.98 l-3.9 0 l0 -0.9 c0 -0.42 -0.2 -0.82 -0.62 -1.16 s-1.02 -0.5 -1.78 -0.5 c-0.62 0 -1.1 0.1 -1.42 0.3 c-0.32 0.22 -0.48 0.46 -0.48 0.76 s0.18 0.54 0.54 0.74 c0.36 0.22 1.04 0.5 2.04 0.84 l1.02 0.36 l1.08 0.44 c0.46 0.22 0.84 0.4 1.12 0.58 s0.6 0.42 0.98 0.72 s0.66 0.62 0.88 0.92 c0.2 0.3 0.38 0.68 0.54 1.1 c0.14 0.42 0.22 0.88 0.22 1.34 c0 1.48 -0.58 2.62 -1.72 3.42 c-1.14 0.82 -2.64 1.22 -4.48 1.22 z M256.48400000000004 20 l0 -15.6 l11.98 0 l0 3.88 l-7.98 0 l0 2.24 l5.62 0 l0 3.62 l-5.62 0 l0 2 l7.98 0 l0 3.86 l-11.98 0 z M306.536 20 l6.32 -15.6 l3.96 0 l6.3 15.6 l-4.36 0 l-1.26 -3.48 l-5.3 0 l-1.3 3.48 l-4.36 0 z M313.436 13.280000000000001 l2.78 -0.02 l-1.38 -3.74 z M339.452 20 l0 -15.6 l4 0 l0 15.6 l-4 0 z"/></g>
			</g>
		</svg>
	